<svg id="pettera_logo" data-name="pettera logo" xmlns="http://www.w3.org/2000/svg" width="350.438" height="142.465" viewBox="0 0 350.438 142.465">
  <path id="Path_14072" data-name="Path 14072" d="M221.46,293.8q.132-9.5-9.508-9.558-7.542-.049-7.526,7.608v2.879c-.025,7.37-.033,7.468,7.263,8.324,4.285.5,5.239,3.405,5.486,6.893.337,4.746-1.439,8.414-4.639,8.932-11.449,1.834-24.478-2.171-25.317-17.807-.238-4.507-.206-9.039-.115-13.555.049-2.41-.633-3.5-3.249-3.331-3.956.263-5.716-2.056-5.856-5.766a52.932,52.932,0,0,1,.082-6.152c.271-3.323,2.023-5.577,5.5-5.3,3.241.263,3.66-1.275,3.512-3.849-.123-2.188-.041-4.384,0-6.572.091-6.054,2.352-8.159,8.727-8.143,6.1.016,8.373,2.114,8.529,7.9.025.962.049,1.917.058,2.879q.058,7.69,7.937,7.674c9.2-.016,9.171-.016,9.278-9.278.033-2.961-.485-6.391,2.928-7.913a13.25,13.25,0,0,1,11.9.3c1.884.979,2.418,2.854,2.426,4.894.017,3.15.123,6.3.066,9.451-.041,2.147.864,2.994,2.977,2.722a21.87,21.87,0,0,1,3.282-.156c2.994.066,6.514-.428,8.028,2.813a13.516,13.516,0,0,1-.156,11.943c-1.25,2.509-3.9,2.632-6.465,2.648-7.641.049-7.641.082-7.666,7.838,0,.962-.008,1.916,0,2.879.025,7.074.189,7.361,7.156,8.085,4.2.436,5.445,3.125,5.667,6.744.313,5.206-1.316,8.62-4.886,9.146C235.879,320.6,223.294,316.816,222,302.43c-.255-2.862-.354-5.733-.526-8.6Z" transform="translate(-62.116 -178.181)" fill="#5cb9ff"/>
  <path id="Exclusion_1" data-name="Exclusion 1" d="M8.285,73.456h0a11.637,11.637,0,0,1-5.58-1.52A4.663,4.663,0,0,1,.443,69.38,9.852,9.852,0,0,1,0,65.964C.031,58.749.025,51.475.02,44.44l0-1.991c0-2.139,0-4.313,0-6.459H.033q0-4.791,0-9.581c0-5.845,0-12.628,0-19.165,0-3.139.376-4.752,1.323-5.751S3.905.082,6.893.065l.663,0h.088C11.946.03,16.394,0,20.769,0,25.22,0,29.143.032,32.76.1,38.006.19,43.648,2.754,48.24,7.129s7.439,9.881,7.847,15.135c.7,8.927-1.564,16.526-6.534,21.974-5.008,5.489-12.453,8.457-21.53,8.582-7.054.1-10.655,3.686-10.7,10.668a10.459,10.459,0,0,1-2.647,7.266A8.655,8.655,0,0,1,8.285,73.456ZM23.6,17.406c-6.307,0-6.307.8-6.307,8.452,0,.567.015,1.169.027,1.653v.015a30.3,30.3,0,0,1-.059,3.66,3.683,3.683,0,0,0,.613,2.908,3.323,3.323,0,0,0,2.579.839c.183,0,.38-.006.584-.018,1.3-.081,2.645-.092,3.9-.092h.944l1.1,0c1.363,0,2.827-.015,4.295-.125,4.3-.334,7.156-3.319,7.452-7.791.292-4.4-2.21-7.974-6.226-8.89A30.686,30.686,0,0,0,26,17.429C25.031,17.415,24.293,17.406,23.6,17.406Z" transform="translate(0 68.123)" fill="#5cb9ff"/>
  <path id="Exclusion_4" data-name="Exclusion 4" d="M24.159,52.8h0a22.459,22.459,0,0,1-8.618-1.923,23.156,23.156,0,0,1-6.956-4.511A26.058,26.058,0,0,1,3.49,39.717,28.905,28.905,0,0,1,.574,31.576,30.315,30.315,0,0,1,.16,22.59a21.4,21.4,0,0,1,2.117-7.114,28.9,28.9,0,0,1,4.41-6.549,28.427,28.427,0,0,1,5.977-5.133A20.549,20.549,0,0,1,19.482.927,23.605,23.605,0,0,1,24.3.383a13.277,13.277,0,0,1,9.123,3.281,2.487,2.487,0,0,0,1.515.816c.5,0,.981-.334,1.677-1.153A10.688,10.688,0,0,1,44.774,0a11.5,11.5,0,0,1,5.462,1.3C52.452,2.5,52.75,4.508,52.743,6.5c-.015,4.17-.012,8.366-.009,12.424,0,2.389.006,5.1,0,7.711,0,1.913,0,3.933.006,5.555v.187c.007,4.584.012,9.325-.022,13.983-.017,2.292-.417,3.733-1.3,4.673s-2.293,1.41-4.536,1.478c-.513.015-1.042.045-1.555.074h-.006c-.747.042-1.52.086-2.272.086A9.524,9.524,0,0,1,39.3,52.05a6.581,6.581,0,0,1-3.109-2.792,1.092,1.092,0,0,0-.9-.65,2.215,2.215,0,0,0-1.221.65c-.1.083-.185.151-.267.214a16.672,16.672,0,0,1-4.754,2.547A15.389,15.389,0,0,1,24.159,52.8Zm2.06-34.957h-.133a8.833,8.833,0,0,0-8.513,8.71A8.4,8.4,0,0,0,20.1,32.516a9,9,0,0,0,6.315,2.647c.082,0,.158,0,.236,0a8.306,8.306,0,0,0,8.084-8.538,8.9,8.9,0,0,0-2.444-6.4,8.458,8.458,0,0,0-6.067-2.381Z" transform="translate(297.692 88.21)" fill="#5cb9ff"/>
  <path id="Exclusion_2" data-name="Exclusion 2" d="M29.177,55.129a38.058,38.058,0,0,1-13.027-2.105A23.663,23.663,0,0,1,4.127,42.565,29.084,29.084,0,0,1,.038,26.35,29.787,29.787,0,0,1,2.945,14.716a25.022,25.022,0,0,1,6.48-8.223A29.559,29.559,0,0,1,28.355,0a32.293,32.293,0,0,1,12.4,2.458A16.926,16.926,0,0,1,46.49,6.5a21.7,21.7,0,0,1,3.991,6.034,20.2,20.2,0,0,1,1.12,14.08,9.4,9.4,0,0,1-3.478,4.69,10.941,10.941,0,0,1-5.939,2.054c-1.19.055-2.466.081-4.016.081-1.041,0-2.1-.012-3.125-.023h-.064c-1.007-.011-2.047-.022-3.068-.022v.064l.009.009H31.9l-2.654,0-2.672,0c-2.155,0-3.8.009-5.342.029a2.594,2.594,0,0,0-1.819.577c-.635.826.173,1.6.707,2.1a13.651,13.651,0,0,0,9.934,3.767c.314,0,.642-.008.973-.023a34.239,34.239,0,0,0,8.521-1.869l.253-.078.406-.126a8.883,8.883,0,0,1,2.61-.442c2.38,0,4.119,1.326,5.639,4.3a9.331,9.331,0,0,1,1.225,5.634,6.522,6.522,0,0,1-2.8,4.22,14.541,14.541,0,0,1-6.407,2.568A72.275,72.275,0,0,1,29.177,55.129Zm-.706-39.3a9.717,9.717,0,0,0-5.692,2.041c-.172.124-.344.245-.551.39-1.617,1.131-3.629,2.539-3.019,4.588a1.648,1.648,0,0,0,1.824,1.184,10.952,10.952,0,0,0,1.263-.1h0l.016,0a11,11,0,0,1,1.293-.106,3.35,3.35,0,0,1,.7.065,2.92,2.92,0,0,0,.587.051c.171,0,.347-.009.516-.018h.007c.163-.009.348-.018.521-.018v.017h.031c.561,0,1.122,0,1.743.005.516,0,1.159.005,1.769.005.661,0,1.239,0,1.769-.01,2.194-.04,3.448-.875,3.724-2.483A4.086,4.086,0,0,0,32.739,17,8.744,8.744,0,0,0,28.471,15.828Z" transform="translate(58.854 87.337)" fill="#5cb9ff"/>
  <path id="Exclusion_3" data-name="Exclusion 3" d="M29.061,55.056h0A39.051,39.051,0,0,1,17.5,53.447a22.532,22.532,0,0,1-8.837-5.124,26.1,26.1,0,0,1-5.825-8.135A30.644,30.644,0,0,1,.788,20.454,26.118,26.118,0,0,1,4.825,11.43,25.4,25.4,0,0,1,11.37,5.046a28.828,28.828,0,0,1,8.171-3.793A32.05,32.05,0,0,1,28.456,0,30.576,30.576,0,0,1,40.514,2.418,18.064,18.064,0,0,1,46.219,6.4a21.9,21.9,0,0,1,4.064,5.813,21.447,21.447,0,0,1,1.994,6.707,16.389,16.389,0,0,1-.51,6.671,10.931,10.931,0,0,1-3.608,5.569,10.634,10.634,0,0,1-6.272,2.22c-1.175.053-2.437.078-3.968.078-1.067,0-2.175-.012-3.154-.023s-2.084-.023-3.151-.023l.009.009q-1.292,0-2.645-.006c-.814,0-1.736-.006-2.645-.006-1.633,0-2.956.012-4.163.036h-.046c-.214,0-.451-.018-.657-.035s-.428-.034-.649-.034c-.606,0-1.252.121-1.436,1.015-.244,1.19.906,2.191,1.613,2.682a15.248,15.248,0,0,0,8.648,2.916,13.644,13.644,0,0,0,2.217-.184,62.046,62.046,0,0,0,7.971-1.892,10.237,10.237,0,0,1,2.975-.527c2.334,0,3.959,1.267,5.61,4.374,2,3.77,1.484,7.269-1.42,9.6a13.718,13.718,0,0,1-6.761,2.764A81.6,81.6,0,0,1,29.061,55.056Zm-2.6-31.12c.4,0,.8.005,1.245.012.409.006.832.012,1.248.012.615,0,1.121-.013,1.59-.042.237-.016.49-.023.712-.03,1.528-.047,3.106-.1,3.425-2.248a4.315,4.315,0,0,0-2.65-4.975,7.989,7.989,0,0,0-3.454-.737,10.47,10.47,0,0,0-8.48,4.33c-.067.1-.139.2-.214.311l-.034.048c-.539.758-1.148,1.617-.517,2.6a1.709,1.709,0,0,0,1.608.687c.139,0,.28,0,.416-.009h.021c.111-.005.27-.011.424-.011l.16,0c.492.013,1.019.02,1.658.02.464,0,.935,0,1.391-.007h.062c.455,0,.927-.007,1.389-.007h0l-.008.016v.026Z" transform="translate(196.775 87.336)" fill="#5cb9ff"/>
  <path id="Path_14077" data-name="Path 14077" d="M299.98,223.887a31.909,31.909,0,0,1,4.935-15.677c5.659-9.08,14.476-12.3,24.445-8.48,10.232,3.915,17.182,11.087,19.485,22.068,1.818,8.644-2.574,14.928-11.3,15.9a40.321,40.321,0,0,0-16.623,5.355c-6.728,4-13.448,2.04-17.544-4.746C301.263,234.8,300,229.989,299.98,223.887Z" transform="translate(-83.256 -169.763)" fill="#5cb9ff"/>
  <path id="Path_14078" data-name="Path 14078" d="M365.161,305.425c0,3.29.09,6.58-.025,9.862-.2,5.774-1.875,7.452-7.682,7.945-7.213.617-9.8-1.735-9.8-8.957q0-18.074,0-36.157c0-3.183.337-6.177,4.071-7.123,4.359-1.1,9.1-1.719,12.173,2.089,1.735,2.147,2.262,1.324,3.611.329a16.326,16.326,0,0,1,11.515-3.438c7.016.625,9.985,4.713,8.176,11.5-1.62,6.054-4.573,7.789-10.676,6.259-7.658-1.916-11.318.864-11.359,8.653-.017,3.01,0,6.029-.008,9.039Z" transform="translate(-91.533 -181.999)" fill="#5cb9ff"/>
  <path id="Path_14079" data-name="Path 14079" d="M413.771,228.278a19.318,19.318,0,0,1-2.8,10.133c-3.413,5.42-8.118,6.679-13.588,3.438a30.676,30.676,0,0,0-12.666-4.31c-6.013-.633-9.294-5.034-8.554-11.17,1.275-10.512,12.428-19.51,22.989-18.613,4.656.395,7.83,3.093,10.306,6.654a24.024,24.024,0,0,1,4.31,13.867Z" transform="translate(-96.268 -171.426)" fill="#5cb9ff"/>
  <path id="Path_14080" data-name="Path 14080" d="M357,180.178c-.576,5.067-2.928,9.977-8.274,12.9-4.442,2.418-8.143.485-9.081-4.458-1.151-6,3.578-14.131,9.377-16.121,4.45-1.53,8,1.522,7.986,7.682Z" transform="translate(-90.214 -165.351)" fill="#5cb9ff"/>
  <path id="Path_14081" data-name="Path 14081" d="M286.806,212.417a15.417,15.417,0,0,1-12.2-6.95c-3.3-4.836-1.267-9.253,4.466-10.141,5.486-.847,12.979,3.109,15.373,8.126,2.328,4.877-.658,8.916-7.649,8.965Z" transform="translate(-78.696 -169.305)" fill="#5cb9ff"/>
  <path id="Path_14082" data-name="Path 14082" d="M317.11,175.052a14.758,14.758,0,0,1,2.122-7.9c2.69-4.145,7.057-4.367,10.166-.51,3.52,4.367,4.113,12.313,1.275,17.092-2.673,4.5-7.559,4.746-10.717.494A16.089,16.089,0,0,1,317.11,175.052Z" transform="translate(-86.351 -163.894)" fill="#5cb9ff"/>
  <path id="Path_14083" data-name="Path 14083" d="M308.538,187.84c-.082,5.659-4.121,8.192-9.146,5.733-5.165-2.525-8.974-9.154-8.529-14.846.37-4.787,3.858-6.95,8.381-5.215,5.215,2,9.385,8.414,9.3,14.328Z" transform="translate(-81.792 -165.496)" fill="#5cb9ff"/>
  <path id="Path_14084" data-name="Path 14084" d="M432.641,206c2.9.008,5.009.567,6.136,2.772,1.184,2.319.041,4.3-1.464,5.947a12.238,12.238,0,0,1-10.224,4.244c-4.565-.337-6.325-4.17-3.676-7.88A12.276,12.276,0,0,1,432.641,206Z" transform="translate(-104.454 -171.176)" fill="#5cb9ff"/>
  <path id="Path_14085" data-name="Path 14085" d="M389.294,199.149a4.55,4.55,0,0,1-2.6,4.4c-1.974,1.028-3.767.222-5.338-.938a12.624,12.624,0,0,1-5.247-10.158,5.023,5.023,0,0,1,2.55-4.8c1.958-1.168,3.775-.485,5.354.642,3.413,2.451,5.256,5.815,5.28,10.841Z" transform="translate(-96.577 -168.005)" fill="#5cb9ff"/>
  <path id="Path_14086" data-name="Path 14086" d="M413.024,198.624a11.918,11.918,0,0,1,7.23-9.483c3.545-1.481,6.284.4,6.523,4.2.255,3.964-3.117,9.475-6.7,10.972C415.722,206.134,412.67,203.962,413.024,198.624Z" transform="translate(-102.825 -168.285)" fill="#5cb9ff"/>
  <path id="Path_14087" data-name="Path 14087" d="M407.062,189.519c.058,5.132-2.969,9.664-6.391,9.574-3.668-.1-5.988-4.886-5.083-10.479.707-4.367,3.52-7.666,6.333-7.427s5.1,3.932,5.149,8.332Z" transform="translate(-99.701 -166.961)" fill="#5cb9ff"/>
</svg>
